<svg xmlns="http://www.w3.org/2000/svg" width="1600" height="900" viewBox="0 0 1600 900"><defs><linearGradient id="bg" x1="0" y1="0" x2="1" y2="1"><stop offset="0" stop-color="#1e1b4b"/><stop offset="0.45" stop-color="#581c87"/><stop offset="1" stop-color="#be185d"/></linearGradient><linearGradient id="card" x1="0" y1="0" x2="1" y2="1"><stop offset="0" stop-color="#ffffff" stop-opacity="0.98"/><stop offset="1" stop-color="#fdf2f8"/></linearGradient><filter id="shadow" x="-20%" y="-20%" width="140%" height="140%"><feDropShadow dx="0" dy="24" stdDeviation="28" flood-color="#020617" flood-opacity="0.28"/></filter></defs><rect width="1600" height="900" fill="url(#bg)"/><circle cx="1320" cy="120" r="290" fill="#f0abfc" opacity="0.18"/><circle cx="170" cy="760" r="330" fill="#f9a8d4" opacity="0.16"/><circle cx="1240" cy="700" r="170" fill="#fde68a" opacity="0.18"/><text x="120" y="125" font-family="Inter, Segoe UI, Arial, sans-serif" font-size="34" font-weight="800" fill="#fdf2f8">SeuFuturo</text><text x="120" y="215" font-family="Inter, Segoe UI, Arial, sans-serif" font-size="68" font-weight="900" fill="#ffffff">Daily Astrology Forecasts</text><text x="122" y="270" font-family="Inter, Segoe UI, Arial, sans-serif" font-size="28" fill="#fce7f3">Responsive PWA with authentication, plan access and personalized horoscope content.</text><rect x="120" y="335" width="230" height="58" rx="29" fill="#ffffff" opacity="0.16"/><text x="155" y="372" font-family="Inter, Segoe UI, Arial, sans-serif" font-size="22" font-weight="800" fill="#ffffff">FastAPI</text><rect x="375" y="335" width="180" height="58" rx="29" fill="#ffffff" opacity="0.16"/><text x="410" y="372" font-family="Inter, Segoe UI, Arial, sans-serif" font-size="22" font-weight="800" fill="#ffffff">PWA</text><rect x="580" y="335" width="250" height="58" rx="29" fill="#ffffff" opacity="0.16"/><text x="615" y="372" font-family="Inter, Segoe UI, Arial, sans-serif" font-size="22" font-weight="800" fill="#ffffff">Plan Access</text><g filter="url(#shadow)"><rect x="985" y="95" width="395" height="720" rx="48" fill="#111827"/><rect x="1008" y="122" width="349" height="666" rx="38" fill="url(#card)"/></g><rect x="1040" y="160" width="285" height="78" rx="28" fill="#4c1d95"/><text x="1070" y="207" font-family="Inter, Segoe UI, Arial, sans-serif" font-size="26" font-weight="900" fill="#ffffff">SeuFuturo</text><text x="1040" y="295" font-family="Inter, Segoe UI, Arial, sans-serif" font-size="24" font-weight="800" fill="#581c87">Today's Forecast</text><rect x="1040" y="322" width="285" height="120" rx="24" fill="#fae8ff"/><text x="1065" y="365" font-family="Inter, Segoe UI, Arial, sans-serif" font-size="22" font-weight="800" fill="#86198f">Aries</text><text x="1065" y="402" font-family="Inter, Segoe UI, Arial, sans-serif" font-size="18" fill="#475569">Energy is high. Focus on one</text><text x="1065" y="428" font-family="Inter, Segoe UI, Arial, sans-serif" font-size="18" fill="#475569">decision and move with clarity.</text><rect x="1040" y="472" width="135" height="105" rx="22" fill="#fdf2f8"/><text x="1065" y="518" font-family="Inter, Segoe UI, Arial, sans-serif" font-size="18" font-weight="800" fill="#be185d">Love</text><text x="1065" y="548" font-family="Inter, Segoe UI, Arial, sans-serif" font-size="28" font-weight="900" fill="#831843">82%</text><rect x="1190" y="472" width="135" height="105" rx="22" fill="#fef3c7"/><text x="1215" y="518" font-family="Inter, Segoe UI, Arial, sans-serif" font-size="18" font-weight="800" fill="#a16207">Career</text><text x="1215" y="548" font-family="Inter, Segoe UI, Arial, sans-serif" font-size="28" font-weight="900" fill="#713f12">91%</text><rect x="1040" y="610" width="285" height="70" rx="24" fill="#7e22ce"/><text x="1095" y="653" font-family="Inter, Segoe UI, Arial, sans-serif" font-size="21" font-weight="900" fill="#ffffff">Unlock Premium</text><rect x="120" y="470" width="760" height="260" rx="36" fill="#ffffff" opacity="0.13"/><text x="165" y="535" font-family="Inter, Segoe UI, Arial, sans-serif" font-size="30" font-weight="900" fill="#ffffff">Product Highlights</text><text x="165" y="595" font-family="Inter, Segoe UI, Arial, sans-serif" font-size="24" fill="#fce7f3">• Personalized daily horoscope experience</text><text x="165" y="642" font-family="Inter, Segoe UI, Arial, sans-serif" font-size="24" fill="#fce7f3">• Account flow, protected content and plan-based access</text><text x="165" y="689" font-family="Inter, Segoe UI, Arial, sans-serif" font-size="24" fill="#fce7f3">• FastAPI backend connected to a responsive PWA frontend</text></svg>